# This file uses centimeters as units for non-parametric coordinates.

mtllib Split Blade.mtl
g default
v -0.098928 3.249357 0.500000
v -0.098927 3.249357 -0.500000
v -0.098929 1.541371 -0.021408
v 0.067525 18.269948 0.500000
v -0.067525 18.269948 0.500000
v 0.153684 18.269948 -0.021408
v -0.153684 18.269948 -0.021408
v -0.044172 18.269948 -0.500000
v 0.044172 18.269948 -0.500000
vt 0.375516 0.000008
vt 0.625000 0.188699
vt 0.375000 0.188699
vt 0.375000 0.561301
vt 0.625000 0.561301
vt 0.376164 0.750035
vt 0.539496 0.000009
vt 0.812947 0.000017
vt 0.875000 0.188699
vt 0.755352 0.188699
vt 0.125041 0.000019
vt 0.244714 0.000009
vt 0.244648 0.188699
vt 0.125000 0.188699
vn 0.000000 0.000000 1.000000
vn 0.000000 0.000000 1.000000
vn 0.000000 0.000000 1.000000
vn 0.000000 0.000000 -1.000000
vn 0.000000 0.000000 -1.000000
vn 0.000000 0.000000 -1.000000
vn 0.999862 -0.012847 -0.010531
vn 0.990717 -0.012348 -0.135380
vn 0.990717 -0.012348 -0.135380
vn 0.999864 -0.012848 -0.010287
vn -0.993519 0.000000 -0.113670
vn -0.999944 -0.000385 -0.010598
vn -0.999940 -0.000384 -0.010910
vn -0.993519 0.000000 -0.113670
vn 0.994525 -0.013127 0.103668
vn 0.994525 -0.013127 0.103668
vn -0.996505 -0.000733 0.083534
vn -0.996505 -0.000733 0.083534
vn 0.000000 1.000000 0.000000
vn 0.000000 1.000000 0.000000
vn 0.000000 1.000000 0.000000
vn 0.000000 1.000000 0.000000
vn 0.000000 1.000000 0.000000
vn 0.000000 1.000000 0.000000
s off
g polySurface1 pCube1
usemtl aiStandardSurface1SG
f 1/1/1 4/2/2 5/3/3
f 8/4/4 9/5/5 2/6/6
s 1
f 3/7/7 2/8/8 9/9/9 6/10/10
s 2
f 2/11/11 3/12/12 7/13/13 8/14/14
s 1
f 1/1/15 3/7/7 6/10/10 4/2/16
s 2
f 7/13/13 3/12/12 1/1/17 5/3/18
s off
f 5/3/19 4/2/20 6/10/21 9/5/22 8/14/23 7/13/24
